<svg width="24" height="24" xmlns="http://www.w3.org/2000/svg">
 <title/>

 <g>
  <title>background</title>
  <rect fill="none" id="canvas_background" height="402" width="582" y="-1" x="-1"/>
 </g>
 <g>
  <title>Layer 1</title>
  <g id="svg_1">
   <path id="svg_2" fill="#000000" d="m19,15.85c0,-5.32 -1.25,-8.85 -7,-8.85s-7,3.53 -7,8.85c-0.4,0.61 -2,3.17 -2,5.15c0,2.61 5.64,3 9,3s9,-0.39 9,-3c0,-2 -1.6,-4.54 -2,-5.15zm-5,0.31l0.67,-0.45c0.215,-0.173 0.53,-0.139 0.703,0.076c0.173,0.215 0.139,0.53 -0.076,0.703c-0.024,0.019 -0.05,0.037 -0.077,0.051l-0.72,0.48l-0.05,0.87c-0.016,0.264 -0.235,0.47 -0.5,0.47l0,0c-0.276,-0.016 -0.486,-0.253 -0.47,-0.528c0,-0.001 0,-0.001 0,-0.002l0,-0.81l-1.15,-0.66l0,1.32l0.72,0.36c0.237,0.142 0.313,0.45 0.171,0.686c-0.128,0.212 -0.392,0.299 -0.621,0.204l-0.71,-0.37l-0.78,0.39c-0.255,0.106 -0.548,-0.014 -0.654,-0.269c-0.095,-0.229 -0.009,-0.493 0.204,-0.621l0.72,-0.36l0,-1.33l-1.14,0.63l0,0.81c0.017,0.276 -0.193,0.513 -0.468,0.53c-0.001,0 -0.001,0 -0.002,0l0,0c-0.265,0 -0.484,-0.206 -0.5,-0.47l-0.03,-0.87l-0.72,-0.48c-0.243,-0.131 -0.335,-0.434 -0.204,-0.677c0.131,-0.243 0.434,-0.335 0.677,-0.204c0.027,0.015 0.053,0.032 0.077,0.051l0.67,0.45l1.15,-0.64l-1.15,-0.66l-0.67,0.45c-0.215,0.173 -0.53,0.139 -0.703,-0.076s-0.139,-0.53 0.076,-0.703c0.024,-0.019 0.05,-0.037 0.077,-0.051l0.72,-0.46l0.05,-0.87c0.01,-0.27 0.238,-0.481 0.508,-0.471c0.007,0 0.015,0.001 0.022,0.001c0.276,0.016 0.486,0.253 0.47,0.528c0,0.001 0,0.001 0,0.002l0,0.81l1.15,0.66l0,-1.35l-0.72,-0.36c-0.237,-0.142 -0.313,-0.45 -0.171,-0.686c0.128,-0.212 0.392,-0.299 0.621,-0.204l0.78,0.39l0.78,-0.39c0.255,-0.106 0.548,0.014 0.654,0.269c0.095,0.229 0.009,0.493 -0.204,0.621l-0.72,0.36l0,1.32l1.08,-0.63l0,-0.81c-0.017,-0.276 0.193,-0.513 0.468,-0.53c0.001,0 0.001,0 0.002,0c0.27,-0.022 0.506,0.178 0.529,0.448c0.001,0.007 0.001,0.015 0.001,0.022l0.05,0.87l0.72,0.48c0.243,0.131 0.335,0.434 0.204,0.677s-0.434,0.335 -0.677,0.204c-0.027,-0.015 -0.053,-0.032 -0.077,-0.051l-0.67,-0.45l-1.2,0.64l1.11,0.66z"/>
   <path id="svg_3" fill="#000000" d="m8.29,6.22c0.091,0.15 0.254,0.241 0.43,0.24l0.15,0c1.014,-0.311 2.069,-0.466 3.13,-0.46c0.994,-0.01 1.983,0.122 2.94,0.39c0.245,0.07 0.503,-0.055 0.6,-0.29l0.35,-0.9c0.545,-0.998 0.92,-2.079 1.11,-3.2c0.069,-1.036 -0.716,-1.931 -1.752,-2c-0.082,-0.005 -0.165,-0.005 -0.248,0c-0.653,-0.092 -1.28,0.295 -1.49,0.92c-0.003,0.027 -0.003,0.053 0,0.08c-0.05,0 -0.09,0 -0.25,-0.21c-0.412,-0.548 -1.077,-0.846 -1.76,-0.79c-1.34,0 -2.06,1.33 -2.34,2c-1.35,0 -2.15,0.59 -2.15,1.5c0.141,0.843 0.484,1.639 1,2.32l0.28,0.4z"/>
   <rect id="svg_4" height="8.544088" width="8.783322" y="11.058015" x="7.539986" stroke-opacity="null" stroke-width="null" stroke="null" fill="#000000"/>
  </g>
 </g>
</svg>
